# xmcd CD database file
#
# Track frame offsets:
#	150
#	24352
#	53145
#	73252
#	91012
#	109177
#	125302
#	170005
#
# Disc length: 2682 seconds
#
# Revision: 3
# Processed by: cddbd v1.5.1PL0 Copyright (c) Steve Scherf et al.
# Submitted via: CDex 1.51
#
DISCID=640a7808
DTITLE=Lee Morgan/Thad Jones - Minor Strain
DYEAR=1900
DGENRE=Jazz
TTITLE0=Suspended Sentence
TTITLE1=Minor Strain
TTITLE2=A Bid For Sid
TTITLE3=Subtle Rebuttal (Alternate Take)
TTITLE4=Subtle Rebuttal
TTITLE5=Tip Toe
TTITLE6=H&T Blues
TTITLE7=Friday the 13th
EXTD=Tracks 1-3:\nLee Morgan: trumpet\nWayne Shorter: tenor\nBobby Timmons:piano\nJimmy Rowser: bass\nArt Taylor: drums\n\nTracks 4-8:\nThad Jones: trumpet\nAl Grey: trombone\nBilly Mitchell and Frank Wess: tenor saxes\nHank Jones: piano\nRichard Davis: ba
EXTD=ss\nOsie Johson: drums\n\nA 1990 Roulette reissue.\nSubmitted by rwright@waonline.com on 7-20-97.
EXTT0=
EXTT1=
EXTT2=
EXTT3=
EXTT4=
EXTT5=
EXTT6=
EXTT7=
PLAYORDER=
